<?xml version="1.0" encoding="utf-8"?>
<svg version="1.1" xmlns:xlink="http://www.w3.org/1999/xlink" width="172px" height="96px" xmlns="http://www.w3.org/2000/svg">
  <g transform="matrix(1 0 0 1 -791 -523 )">
    <path d="M 791 523  L 963 523  L 963 619  L 791 619  L 791 523  " fill-rule="nonzero" fill="#cccccc" stroke="none" />
    <path d="M 798 530  L 956 530  L 956 612  L 798 612  L 798 530  " fill-rule="nonzero" fill="#ffffff" stroke="none" />
    <path d="M 887.64 551.8  C 883.608 551.8  880.44 548.632  880.44 544.6  C 880.44 540.568  883.608 537.4  887.64 537.4  C 891.672 537.4  894.84 540.568  894.84 544.6  C 894.84 548.632  891.672 551.8  887.64 551.8  " fill-rule="nonzero" fill="#cccccc" stroke="none" />
    <path d="M 801 610  L 801 567.65  L 839.25 548.4  L 892.8 584.213953488372  L 923.4 559.95  L 954 584.213953488372  L 954 610  L 801 610  " fill-rule="nonzero" fill="#169bd5" stroke="none" />
  </g>
</svg>