<?xml version="1.0" encoding="utf-8"?>
<svg version="1.1" xmlns:xlink="http://www.w3.org/1999/xlink" width="13px" height="10px" xmlns="http://www.w3.org/2000/svg">
  <g transform="matrix(1 0 0 1 -1761 -580 )">
    <path d="M 12.7170758928571 0.2890625  C 12.9056919642857 0.377604166666666  13 0.53125  13 0.75  L 13 9.25  C 13 9.46875  12.9056919642857 9.62239583333333  12.7170758928571 9.7109375  C 12.6542038690476 9.73697916666667  12.59375 9.75  12.5357142857143 9.75  C 12.4051339285714 9.75  12.2963169642857 9.70052083333333  12.2092633928571 9.6015625  L 9.28571428571429 6.453125  L 9.28571428571429 7.75  C 9.28571428571429 8.36979166666667  9.08138020833333 8.89973958333333  8.67271205357143 9.33984375  C 8.26404389880952 9.77994791666667  7.77194940476191 10  7.19642857142857 10  L 2.08928571428571 10  C 1.51376488095238 10  1.02167038690476 9.77994791666667  0.613002232142857 9.33984375  C 0.204334077380952 8.89973958333333  0 8.36979166666667  0 7.75  L 0 2.25  C 0 1.63020833333333  0.204334077380952 1.10026041666667  0.613002232142857 0.66015625  C 1.02167038690476 0.220052083333332  1.51376488095238 0  2.08928571428571 0  L 7.19642857142857 0  C 7.77194940476191 0  8.26404389880952 0.220052083333332  8.67271205357143 0.66015625  C 9.08138020833333 1.10026041666667  9.28571428571429 1.63020833333333  9.28571428571429 2.25  L 9.28571428571429 3.5390625  L 12.2092633928571 0.3984375  C 12.2963169642857 0.299479166666666  12.4051339285714 0.25  12.5357142857143 0.25  C 12.59375 0.25  12.6542038690476 0.263020833333332  12.7170758928571 0.2890625  Z " fill-rule="nonzero" fill="#70b603" stroke="none" transform="matrix(1 0 0 1 1761 580 )" />
  </g>
</svg>