<?xml version="1.0" encoding="utf-8"?>
<svg version="1.1" xmlns:xlink="http://www.w3.org/1999/xlink" width="11px" height="7px" xmlns="http://www.w3.org/2000/svg">
  <g transform="matrix(1 0 0 1 -2998 -885 )">
    <path d="M 5.91120419726563 6.363220734375  C 5.80647120605469 6.47009927832031  5.6631184140625 6.53032643945312  5.51348085253906 6.53032643945312  C 5.36386229101563 6.53032643945312  5.22049049902344 6.47009927832031  5.1157575078125 6.363220734375  L 0.289381793945313 1.43870055761719  C 0.0740867636718745 1.21905747753906  0.0776563515625002 0.866466536132813  0.297318413085938 0.651190487304687  C 0.516961493164063 0.435933438476562  0.869571434570313 0.439465044921874  1.08482848339844 0.659127106445313  L 5.51348085253906 5.17783543066406  L 9.94213324023437 0.659127106445313  C 10.1573902890625 0.439446044921875  10.5099622490234 0.435857475585938  10.7296433105469 0.651190487304687  C 10.9493243720703 0.866485517578125  10.9528749599609 1.21905747753906  10.7375799296875 1.43870055761719  L 5.91120419726563 6.363220734375  Z " fill-rule="nonzero" fill="#7f7f7f" stroke="none" transform="matrix(1 0 0 1 2998 885 )" />
  </g>
</svg>