<?xml version="1.0" encoding="utf-8"?>
<svg version="1.1" xmlns:xlink="http://www.w3.org/1999/xlink" width="40px" height="50px" xmlns="http://www.w3.org/2000/svg">
  <defs>
    <filter x="1049px" y="582px" width="40px" height="50px" filterUnits="userSpaceOnUse" id="filter17">
      <feOffset dx="1" dy="1" in="SourceAlpha" result="shadowOffsetInner" />
      <feGaussianBlur stdDeviation="2.5" in="shadowOffsetInner" result="shadowGaussian" />
      <feComposite in2="shadowGaussian" operator="atop" in="SourceAlpha" result="shadowComposite" />
      <feColorMatrix type="matrix" values="0 0 0 0 0  0 0 0 0 0  0 0 0 0 0  0 0 0 0.698039215686274 0  " in="shadowComposite" />
    </filter>
    <g id="widget18">
      <path d="M 1068 625.036928468354  C 1062.2 615.40734059591  1053.5 609.629587872444  1053.5 600  C 1053.5 594.985714285714  1056.4 586.5  1068 586.5  C 1079.6 586.5  1082.5 594.985714285714  1082.5 600  C 1082.5 609.629587872444  1073.8 615.40734059591  1068 625.036928468354  Z " fill-rule="nonzero" fill="#009dd9" stroke="none" />
      <path d="M 1068 626  C 1062 616  1053 610  1053 600  C 1053 594.8  1056 586  1068 586  C 1080 586  1083 594.8  1083 600  C 1083 610  1074 616  1068 626  Z M 1068 624.073856936707  C 1073.6 614.81468119182  1082 609.259175744887  1082 600  C 1082 595.171428571429  1079.2 587  1068 587  C 1056.8 587  1054 595.171428571429  1054 600  C 1054 609.259175744887  1062.4 614.81468119182  1068 624.073856936707  Z " fill-rule="nonzero" fill="#ffffff" stroke="none" />
    </g>
  </defs>
  <g transform="matrix(1 0 0 1 -1049 -582 )">
    <use xlink:href="#widget18" filter="url(#filter17)" />
    <use xlink:href="#widget18" />
  </g>
</svg>