<?xml version="1.0" encoding="utf-8"?>
<svg version="1.1" xmlns:xlink="http://www.w3.org/1999/xlink" width="98px" height="98px" xmlns="http://www.w3.org/2000/svg">
  <g transform="matrix(1 0 0 1 -247 -1108 )">
    <path d="M 296 1108  C 323.44 1108  345 1129.56  345 1157  C 345 1184.44  323.44 1206  296 1206  C 268.56 1206  247 1184.44  247 1157  C 247 1129.56  268.56 1108  296 1108  Z " fill-rule="nonzero" fill="#ffffff" stroke="none" />
    <path d="M 296 1108.5  C 323.16 1108.5  344.5 1129.84  344.5 1157  C 344.5 1184.16  323.16 1205.5  296 1205.5  C 268.84 1205.5  247.5 1184.16  247.5 1157  C 247.5 1129.84  268.84 1108.5  296 1108.5  Z " stroke-width="1" stroke="#797979" fill="none" />
  </g>
</svg>