<?xml version="1.0" encoding="utf-8"?>
<svg version="1.1" xmlns:xlink="http://www.w3.org/1999/xlink" width="16px" height="9px" xmlns="http://www.w3.org/2000/svg">
  <g transform="matrix(1 0 0 1 -412 -45 )">
    <path d="M 8.57712869791667 8.568787359375  C 8.43013502604167 8.72066739550781  8.228938125 8.80625336132812  8.01892049479167 8.80625336132812  C 7.80892953125 8.80625336132812  7.60770596354167 8.72066739550781  7.46071229166667 8.568787359375  L 0.686851640625 1.57078500292969  C 0.384683177083333 1.25866062597656  0.389693125 0.757610340820313  0.697990755208334 0.451691745117187  C 1.00626174479167 0.145800149414063  1.501152890625 0.150818748046875  1.803268046875 0.462970098632813  L 8.01892049479167 6.88429245410156  L 14.23457296875 0.462970098632813  C 14.536688125 0.150791748046876  15.0315259635417 0.145692202148439  15.3398502604167 0.451691745117187  C 15.6481745572917 0.757637314453125  15.6531578385417 1.25866062597656  15.350989375 1.57078500292969  L 8.57712869791667 8.568787359375  Z " fill-rule="nonzero" fill="#aaaaaa" stroke="none" transform="matrix(1 0 0 1 412 45 )" />
  </g>
</svg>