<?xml version="1.0" encoding="utf-8"?>
<svg version="1.1" xmlns:xlink="http://www.w3.org/1999/xlink" width="100px" height="100px" xmlns="http://www.w3.org/2000/svg">
  <g transform="matrix(1 0 0 1 -1088 -789 )">
    <path d="M 1138 789  C 1166 789  1188 811  1188 839  C 1188 867  1166 889  1138 889  C 1110 889  1088 867  1088 839  C 1088 811  1110 789  1138 789  Z " fill-rule="nonzero" fill="#ffffff" stroke="none" />
    <path d="M 1138 789.5  C 1165.72 789.5  1187.5 811.28  1187.5 839  C 1187.5 866.72  1165.72 888.5  1138 888.5  C 1110.28 888.5  1088.5 866.72  1088.5 839  C 1088.5 811.28  1110.28 789.5  1138 789.5  Z " stroke-width="1" stroke="#797979" fill="none" />
  </g>
</svg>