<?xml version="1.0" encoding="utf-8"?>
<svg version="1.1" xmlns:xlink="http://www.w3.org/1999/xlink" width="10px" height="10px" xmlns="http://www.w3.org/2000/svg">
  <g transform="matrix(1 0 0 1 -320 -1000 )">
    <path d="M 325 1000  C 327.8 1000  330 1002.2  330 1005  C 330 1007.8  327.8 1010  325 1010  C 322.2 1010  320 1007.8  320 1005  C 320 1002.2  322.2 1000  325 1000  Z " fill-rule="nonzero" fill="#7f7f7f" stroke="none" />
    <path d="M 325 1000.5  C 327.52 1000.5  329.5 1002.48  329.5 1005  C 329.5 1007.52  327.52 1009.5  325 1009.5  C 322.48 1009.5  320.5 1007.52  320.5 1005  C 320.5 1002.48  322.48 1000.5  325 1000.5  Z " stroke-width="1" stroke="#797979" fill="none" />
  </g>
</svg>