<?xml version="1.0" encoding="utf-8"?>
<svg version="1.1" xmlns:xlink="http://www.w3.org/1999/xlink" width="10px" height="5px" preserveAspectRatio="xMinYMid meet" viewBox="395 1010  10 3" xmlns="http://www.w3.org/2000/svg">
  <path d="M 400 1014  L 208 1014  A 5 5 0 0 0 203 1019 L 203 1295  A 5 5 0 0 0 208 1300 L 375 1300  A 5 5 0 0 1 380 1305 L 380 1312  A 5 5 0 0 0 385 1317 L 393 1317  " stroke-width="2" stroke="#1f7aff" fill="none" />
  <path d="M 387.892893218813 1312.70710678119  L 392.185786437627 1317  L 387.892893218813 1321.29289321881  L 389.307106781187 1322.70710678119  L 394.307106781187 1317.70710678119  L 395.014213562373 1317  L 394.307106781187 1316.29289321881  L 389.307106781187 1311.29289321881  L 387.892893218813 1312.70710678119  Z " fill-rule="nonzero" fill="#1f7aff" stroke="none" />
</svg>