<?xml version="1.0" encoding="utf-8"?>
<svg version="1.1" xmlns:xlink="http://www.w3.org/1999/xlink" width="14px" height="10px" xmlns="http://www.w3.org/2000/svg">
  <g transform="matrix(1 0 0 1 -1254 -1004 )">
    <path d="M 5.79296875 9.36171875  C 5.6546875 9.49765625  5.46484375 9.575  5.2703125 9.575  L 5.25859375 9.575  C 5.059375 9.57265625  4.86953125 9.48828125  4.73125 9.34296875  L 0.514843750000001 4.925  C 0.23125 4.62734375  0.240625000000001 4.15390625  0.540625 3.8703125  C 0.83828125 3.58671875  1.31171875 3.59609375  1.5953125 3.89609375  L 5.2890625 7.765625  L 12.49609375 0.689843750000001  C 12.7890625 0.401562500000001  13.2625 0.40625  13.55078125 0.69921875  C 13.8390625 0.9921875  13.834375 1.465625  13.54140625 1.75390625  L 5.79296875 9.36171875  Z " fill-rule="nonzero" fill="#000000" stroke="none" transform="matrix(1 0 0 1 1254 1004 )" />
  </g>
</svg>