<?xml version="1.0" encoding="utf-8"?>
<svg version="1.1" xmlns:xlink="http://www.w3.org/1999/xlink" width="22px" height="22px" xmlns="http://www.w3.org/2000/svg">
  <g transform="matrix(1 0 0 1 -1250 -998 )">
    <path d="M 21 18.2796875  C 21.1671875 19.86640625  19.87578125 21.15546875  18.29140625 21  L 3.78125 21  C 2.196875 21.15546875  0.90546875 19.86640625  1 18.2796875  L 1 3.76953125  C 0.90546875 2.18515625  2.19453125 0.89375  3.78125 1  L 18.29140625 1  C 19.87578125 0.89375  21.1671875 2.1828125  21 3.76953125  L 21 18.2796875  Z M 3.78125 2.23671875  L 3.78125 2.2390625  C 2.9375 2.2390625  2.2484375 2.92578125  2.2484375 3.771875  L 2.2484375 18.28203125  C 2.2484375 19.12578125  2.93515625 19.81484375  3.78125 19.81484375  L 18.29140625 19.81484375  C 19.13515625 19.81484375  19.82421875 19.128125  19.82421875 18.28203125  L 19.82421875 3.76953125  C 19.82421875 2.92578125  19.1375 2.23671875  18.29140625 2.23671875  L 3.78125 2.23671875  Z " fill-rule="nonzero" fill="#000000" stroke="none" transform="matrix(1 0 0 1 1250 998 )" />
  </g>
</svg>