<?xml version="1.0" encoding="utf-8"?>
<svg version="1.1" xmlns:xlink="http://www.w3.org/1999/xlink" width="40px" height="40px" xmlns="http://www.w3.org/2000/svg">
  <defs>
    <filter x="1316px" y="606px" width="40px" height="40px" filterUnits="userSpaceOnUse" id="filter27">
      <feOffset dx="1" dy="1" in="SourceAlpha" result="shadowOffsetInner" />
      <feGaussianBlur stdDeviation="2.5" in="shadowOffsetInner" result="shadowGaussian" />
      <feComposite in2="shadowGaussian" operator="atop" in="SourceAlpha" result="shadowComposite" />
      <feColorMatrix type="matrix" values="0 0 0 0 0  0 0 0 0 0  0 0 0 0 0  0 0 0 0.698039215686274 0  " in="shadowComposite" />
    </filter>
    <g id="widget28">
      <path d="M 1335 610  C 1343.4 610  1350 616.6  1350 625  C 1350 633.4  1343.4 640  1335 640  C 1326.6 640  1320 633.4  1320 625  C 1320 616.6  1326.6 610  1335 610  Z " fill-rule="nonzero" fill="#009dd9" stroke="none" />
      <path d="M 1335 610.5  C 1343.12 610.5  1349.5 616.88  1349.5 625  C 1349.5 633.12  1343.12 639.5  1335 639.5  C 1326.88 639.5  1320.5 633.12  1320.5 625  C 1320.5 616.88  1326.88 610.5  1335 610.5  Z " stroke-width="1" stroke="#ffffff" fill="none" />
    </g>
  </defs>
  <g transform="matrix(1 0 0 1 -1316 -606 )">
    <use xlink:href="#widget28" filter="url(#filter27)" />
    <use xlink:href="#widget28" />
  </g>
</svg>